<svg width="693" height="524" viewBox="0 0 693 524" fill="none" xmlns="http://www.w3.org/2000/svg">
<path d="M515.417 429.224C550.304 419.876 582.106 401.488 607.613 375.917C633.12 350.346 651.428 318.497 660.687 283.587C669.947 248.677 669.832 211.941 660.352 177.09C650.872 142.239 632.364 110.506 606.697 85.0964C581.03 59.6865 549.112 41.4993 514.167 32.3714C479.223 23.2434 442.488 23.4979 407.673 33.1092C372.858 42.7205 341.195 61.3482 315.882 87.1113C290.57 112.874 272.503 144.861 263.507 179.84" stroke="#454545" stroke-width="50" stroke-linecap="round"/>
<path d="M568.061 230.962C568.061 212.351 563.15 194.069 553.824 177.963C544.498 161.857 531.087 148.497 514.946 139.232C498.805 129.967 480.505 125.125 461.894 125.196C443.283 125.266 425.02 130.246 408.949 139.633C392.878 149.02 379.569 162.481 370.365 178.657C361.161 194.833 356.388 213.151 356.529 231.762C356.67 250.373 361.719 268.617 371.166 284.652C380.613 300.687 394.125 313.945 410.335 323.088" stroke="#454545" stroke-width="50" stroke-linecap="round"/>
<g filter="url(#filter0_d)">
<g clip-path="url(#clip0)">
<path d="M372.428 306.77C371.758 294.876 366.9 283.607 358.72 274.972C350.54 266.338 339.57 260.899 327.767 259.626C315.963 258.353 304.092 261.329 294.271 268.022C284.45 274.715 277.317 284.691 274.144 296.172C273.537 296.15 272.931 296.125 272.319 296.125C261.496 296.127 250.965 299.646 242.301 306.154C233.637 312.663 227.306 321.812 224.255 332.232C217.083 329.07 209.069 328.384 201.468 330.281C193.866 332.179 187.107 336.552 182.247 342.718H338.505C357.703 342.718 373.246 326.761 372.463 307.512C372.453 307.265 372.442 307.018 372.428 306.77Z" fill="#E6E6E6"/>
<path d="M4.06378 244.429C4.73413 232.534 9.59224 221.265 17.772 212.631C25.9517 203.996 36.9213 198.558 48.7251 197.285C60.5288 196.012 72.3994 198.988 82.2204 205.681C92.0414 212.374 99.1745 222.35 102.348 233.83C102.955 233.808 103.561 233.784 104.173 233.784C114.996 233.786 125.527 237.304 134.191 243.813C142.855 250.321 149.186 259.47 152.237 269.89C159.408 266.728 167.422 266.042 175.024 267.94C182.625 269.837 189.385 274.211 194.245 280.376H37.9863C18.7889 280.376 3.24548 264.42 4.02833 245.17C4.03836 244.924 4.05018 244.677 4.06378 244.429Z" fill="#E6E6E6"/>
<path d="M228.248 294.025H105.164L43.6219 400.996L105.164 507.967H228.248L289.79 400.996L228.248 294.025Z" fill="#F2994A"/>
<path d="M115.467 490.058H217.945L269.185 400.996L217.945 311.933H115.467L64.2274 400.996L115.467 490.058Z" fill="white"/>
<path d="M596 507.217H4V508.716H596V507.217Z" fill="#2C2C2C"/>
<path d="M469.121 235.989L474.469 251.196L465.555 269.088L450.401 243.145L469.121 235.989Z" fill="#F2994A"/>
<path d="M514.138 419.825C511.205 423.949 488.59 447.817 473.462 463.669C469.263 468.061 465.644 471.845 463.184 474.413C461.026 476.658 459.761 477.973 459.761 477.973L452.923 463.624L449.955 457.398L449.999 457.344L451.863 454.955L469.629 432.144L488.286 408.196L473.132 377.78L491.852 375.096L504.297 375.83L507.007 375.991C507.007 375.991 518.595 413.563 514.138 419.825Z" fill="#2C2C2C"/>
<path d="M461.543 493.181C460.384 494.344 458.37 492.859 456.186 490.318C451.666 485.058 446.389 475.289 446.389 475.289L440.149 461.871C440.818 457.863 446.933 457.353 449.999 457.344C451.042 457.344 451.738 457.398 451.738 457.398L452.255 458.167L463.184 474.413C463.184 474.413 465.109 489.603 461.543 493.181Z" fill="#2C2C2C"/>
<path opacity="0.2" d="M463.184 474.413C463.184 474.413 465.109 489.603 461.544 493.181C460.385 494.344 458.37 492.859 456.186 490.318L452.923 463.624L452.255 458.167L451.863 454.955L469.629 432.144L473.462 463.669C469.263 468.061 465.644 471.845 463.184 474.413Z" fill="black"/>
<path opacity="0.2" d="M475.53 382.593L473.132 377.78L491.852 375.096L504.297 375.83L504.332 375.99L475.53 382.593Z" fill="black"/>
<path d="M451.738 336.629H445.497L447.281 395.672L459.761 497.654H480.263L471.349 424.298L475.807 383.148L507.007 375.99L498.092 334.84L451.738 336.629Z" fill="#2C2C2C"/>
<path d="M461.543 494.97C461.543 494.97 459.761 507.494 460.652 508.389C461.543 509.284 462.435 510.178 462.435 511.967C462.435 513.756 473.132 518.229 478.481 514.651C483.829 511.073 480.263 505.705 480.263 505.705L474.915 494.97H461.543Z" fill="#2C2C2C"/>
<path d="M457.978 247.171C466.347 247.171 473.132 240.362 473.132 231.963C473.132 223.564 466.347 216.755 457.978 216.755C449.608 216.755 442.823 223.564 442.823 231.963C442.823 240.362 449.608 247.171 457.978 247.171Z" fill="#F2994A"/>
<path d="M466.892 256.117L455.233 251.417L448.172 339.313L497.201 342.891L480.263 252.538L472.687 245.399L466.892 256.117Z" fill="#E6E6E6"/>
<path d="M453.682 248.762L444.606 256.117L427.669 265.062L433.909 321.421L434.8 353.626C434.8 353.626 423.212 382.253 432.126 389.409C441.04 396.566 450.846 393.882 449.063 378.674C447.28 363.467 443.715 352.732 460.652 336.629C477.589 320.527 462.757 244.986 453.682 248.762Z" fill="#2C2C2C"/>
<path d="M471.765 243.508L482.938 250.749L498.092 258.8L509.681 387.62L483.829 395.672C483.829 395.672 469.507 247.002 471.765 243.508Z" fill="#2C2C2C"/>
<path d="M500.766 350.048C500.766 350.048 487.395 370.623 497.201 370.623C507.006 370.623 509.681 353.626 509.681 353.626L500.766 350.048Z" fill="#F2994A"/>
<path d="M445.498 350.048C445.498 350.048 458.869 370.623 449.063 370.623C439.258 370.623 436.583 353.626 436.583 353.626L445.498 350.048Z" fill="#F2994A"/>
<path d="M458.869 209.598L454.412 206.915L455.304 208.704L451.738 207.809L452.629 208.704L448.172 207.809L449.955 209.598C449.955 209.598 442.823 209.598 441.932 216.755L437.475 217.65L439.258 220.333V223.017L441.041 224.806V227.49L442.823 231.963L444.606 225.701C444.606 225.701 452.629 227.49 456.195 220.333C456.195 220.333 457.086 223.017 461.544 222.122L468.675 234.647C468.675 234.647 469.566 229.094 472.686 228.292C475.806 227.49 474.024 220.333 474.024 220.333C474.024 220.333 471.349 217.65 471.349 215.86C471.349 214.071 468.675 212.282 466.892 212.282C465.109 212.282 460.652 208.704 460.652 208.704L458.869 209.598Z" fill="#2C2C2C"/>
<path d="M434.8 265.957L430.651 263.487L427.669 265.062C427.669 265.062 424.103 266.852 423.212 273.114C422.32 279.376 413.406 317.843 413.406 317.843C413.406 317.843 412.515 324.105 416.972 334.84C421.429 345.575 438.366 364.361 438.366 364.361L454.412 350.942L430.343 321.421L436.583 297.267L434.8 265.957Z" fill="#2C2C2C"/>
<path d="M490.961 258.8H498.092L509.681 302.635L513.247 357.204L496.309 350.942V311.581L490.961 258.8Z" fill="#2C2C2C"/>
<path d="M128.467 311.801H127.134V367.032H128.467V311.801Z" fill="#2C2C2C"/>
<path d="M127.801 374.015C129.897 374.015 131.596 372.31 131.596 370.206C131.596 368.102 129.897 366.397 127.801 366.397C125.704 366.397 124.005 368.102 124.005 370.206C124.005 372.31 125.704 374.015 127.801 374.015Z" fill="#F2994A"/>
<path d="M156.935 311.801H155.601V367.032H156.935V311.801Z" fill="#2C2C2C"/>
<path d="M156.268 374.015C158.364 374.015 160.064 372.31 160.064 370.206C160.064 368.102 158.364 366.397 156.268 366.397C154.172 366.397 152.472 368.102 152.472 370.206C152.472 372.31 154.172 374.015 156.268 374.015Z" fill="#2C2C2C"/>
<path d="M206.91 311.801H205.577V367.032H206.91V311.801Z" fill="#2C2C2C"/>
<path d="M206.244 374.015C208.34 374.015 210.039 372.31 210.039 370.206C210.039 368.102 208.34 366.397 206.244 366.397C204.147 366.397 202.448 368.102 202.448 370.206C202.448 372.31 204.147 374.015 206.244 374.015Z" fill="#2C2C2C"/>
<path d="M185.368 428.611C187.464 428.611 189.164 426.906 189.164 424.802C189.164 422.699 187.464 420.993 185.368 420.993C183.272 420.993 181.572 422.699 181.572 424.802C181.572 426.906 183.272 428.611 185.368 428.611Z" fill="#2C2C2C"/>
<path d="M108.19 393.695C110.286 393.695 111.986 391.99 111.986 389.886C111.986 387.782 110.286 386.077 108.19 386.077C106.094 386.077 104.394 387.782 104.394 389.886C104.394 391.99 106.094 393.695 108.19 393.695Z" fill="#2C2C2C"/>
<path d="M186.035 421.628H184.701V355.074H156.268V353.736H186.035V421.628Z" fill="#2C2C2C"/>
<path d="M136.657 452.735C138.753 452.735 140.453 451.03 140.453 448.926C140.453 446.823 138.753 445.117 136.657 445.117C134.561 445.117 132.862 446.823 132.862 448.926C132.862 451.03 134.561 452.735 136.657 452.735Z" fill="#F2994A"/>
<path d="M137.324 445.752H135.991V379.198H107.557V377.86H137.324V445.752Z" fill="#2C2C2C"/>
<path d="M224.589 422.898C226.686 422.898 228.385 421.192 228.385 419.089C228.385 416.985 226.686 415.28 224.589 415.28C222.493 415.28 220.794 416.985 220.794 419.089C220.794 421.192 222.493 422.898 224.589 422.898Z" fill="#F2994A"/>
<path d="M225.256 415.914H223.923V349.361H205.611V348.023H225.256V415.914Z" fill="#2C2C2C"/>
<path d="M108.857 386.077H107.523V352.986H127.801V354.324H108.857V386.077Z" fill="#2C2C2C"/>
<path d="M156.584 467.654C158.681 467.654 160.38 465.949 160.38 463.845C160.38 461.741 158.681 460.036 156.584 460.036C154.488 460.036 152.789 461.741 152.789 463.845C152.789 465.949 154.488 467.654 156.584 467.654Z" fill="#2C2C2C"/>
<path d="M157.251 460.036H155.917V428.283H136.973V426.945H157.251V460.036Z" fill="#2C2C2C"/>
<path d="M204.979 439.404C207.075 439.404 208.774 437.698 208.774 435.595C208.774 433.491 207.075 431.786 204.979 431.786C202.882 431.786 201.183 433.491 201.183 435.595C201.183 437.698 202.882 439.404 204.979 439.404Z" fill="#2C2C2C"/>
<path d="M205.645 431.786H204.312V398.695H224.589V400.033H205.645V431.786Z" fill="#2C2C2C"/>
</g>
</g>
<defs>
<filter id="filter0_d" x="0" y="197" width="600" height="327" filterUnits="userSpaceOnUse" color-interpolation-filters="sRGB">
<feFlood flood-opacity="0" result="BackgroundImageFix"/>
<feColorMatrix in="SourceAlpha" type="matrix" values="0 0 0 0 0 0 0 0 0 0 0 0 0 0 0 0 0 0 127 0"/>
<feOffset dy="4"/>
<feGaussianBlur stdDeviation="2"/>
<feColorMatrix type="matrix" values="0 0 0 0 0 0 0 0 0 0 0 0 0 0 0 0 0 0 0.25 0"/>
<feBlend mode="normal" in2="BackgroundImageFix" result="effect1_dropShadow"/>
<feBlend mode="normal" in="SourceGraphic" in2="effect1_dropShadow" result="shape"/>
</filter>
<clipPath id="clip0">
<rect x="4" y="197" width="592" height="319" fill="white"/>
</clipPath>
</defs>
</svg>
