<svg width="118" height="30" viewBox="0 0 118 30" fill="none" xmlns="http://www.w3.org/2000/svg">
<mask id="mask0" mask-type="alpha" maskUnits="userSpaceOnUse" x="0" y="0" width="118" height="30">
<path d="M63.3861 24.826V29.1864H0V0.307068H117.099V29.1864H76.6896H69.8945V24.826H63.3861Z" fill="#C4C4C4"/>
</mask>
<g mask="url(#mask0)">
<path d="M13.8338 10.6966V8.22736H12.0976C9.66693 8.22736 7.73781 8.80609 6.31027 9.92498V8.22736H3.841V28.213H6.31027V15.5966C6.31027 14.0147 6.77326 12.7801 7.69923 11.9698C8.66379 11.121 10.1685 10.6966 12.0976 10.6966H13.8338Z" fill="#F1F1F1"/>
<path d="M24.7951 8.22736C22.2487 8.22736 20.2038 8.88326 18.7763 10.1179C17.3101 11.3911 16.5385 13.2816 16.5385 15.5966V20.8438C16.5385 23.1587 17.3101 25.0492 18.7763 26.3224C20.2038 27.5571 22.2487 28.213 24.7951 28.213H25.2581C27.11 28.213 28.7305 27.8657 30.0037 27.1713C31.3927 26.4382 32.3572 25.3579 32.936 23.9303L30.6596 23.0044C30.2738 23.8918 29.695 24.5477 28.8462 25.0106C27.9203 25.4736 26.7242 25.7437 25.2581 25.7437H24.7951C22.866 25.7437 21.3613 25.3193 20.3967 24.4705C19.4707 23.6603 19.0078 22.4256 19.0078 20.8438V19.4548H33.0131V15.5966C33.0131 13.2816 32.2415 11.3911 30.7754 10.1179C29.3478 8.88326 27.3415 8.22736 24.7951 8.22736ZM24.7951 10.6966C26.7242 10.6966 28.1903 11.121 29.1549 11.9698C30.0809 12.7801 30.5439 14.0147 30.5439 15.5966V16.9855H19.0078V15.5966C19.0078 14.0147 19.4707 12.7801 20.3967 11.9698C21.3613 11.121 22.866 10.6966 24.7951 10.6966Z" fill="#F1F1F1"/>
<path d="M40.8987 1.20538H38.4294V28.213H40.8987V26.5154C42.3262 27.6342 44.2553 28.213 46.686 28.213C49.2324 28.213 51.2387 27.5571 52.6663 26.3224C54.1324 25.0492 54.904 23.1587 54.904 20.8438V15.5966C54.904 13.2816 54.1324 11.3911 52.6663 10.1179C51.2387 8.88326 49.2324 8.22736 46.686 8.22736C44.2553 8.22736 42.3262 8.80609 40.8987 9.92498V1.20538ZM46.686 10.6966C48.6151 10.6966 50.0813 11.121 51.0458 11.9698C51.9718 12.7801 52.4348 14.0147 52.4348 15.5966V20.8438C52.4348 22.4256 51.9718 23.6603 51.0458 24.4705C50.0813 25.3193 48.6151 25.7437 46.686 25.7437C44.7569 25.7437 43.2522 25.3193 42.2876 24.4705C41.3617 23.6603 40.8987 22.4256 40.8987 20.8438V15.5966C40.8987 14.0147 41.3617 12.7801 42.2876 11.9698C43.2522 11.121 44.7569 10.6966 46.686 10.6966Z" fill="#F1F1F1"/>
<path d="M66.6554 8.22736C64.1089 8.22736 62.0641 8.88326 60.6365 10.1179C59.1704 11.3911 58.3988 13.2816 58.3988 15.5966V20.8438C58.3988 23.1587 59.1704 25.0492 60.6365 26.3224C62.0641 27.5571 64.1089 28.213 66.6554 28.213C69.2018 28.213 71.2081 27.5571 72.6356 26.3224C74.1017 25.0492 74.8734 23.1587 74.8734 20.8438V15.5966C74.8734 13.2816 74.1017 11.3911 72.6356 10.1179C71.2081 8.88326 69.2018 8.22736 66.6554 8.22736ZM66.6554 10.6966C68.5845 10.6966 70.0506 11.121 71.0152 11.9698C71.9411 12.7801 72.4041 14.0147 72.4041 15.5966V20.8438C72.4041 22.4256 71.9411 23.6603 71.0152 24.4705C70.0506 25.3193 68.5845 25.7437 66.6554 25.7437C64.7262 25.7437 63.2215 25.3193 62.257 24.4705C61.331 23.6603 60.868 22.4256 60.868 20.8438V15.5966C60.868 14.0147 61.331 12.7801 62.257 11.9698C63.2215 11.121 64.7262 10.6966 66.6554 10.6966Z" fill="#F1F1F1"/>
<path d="M86.6247 8.22736C84.0783 8.22736 82.0334 8.88326 80.6059 10.1179C79.1397 11.3911 78.3681 13.2816 78.3681 15.5966V20.8438C78.3681 23.1587 79.1397 25.0492 80.6059 26.3224C82.0334 27.5571 84.0783 28.213 86.6247 28.213C89.1711 28.213 91.1774 27.5571 92.605 26.3224C94.0711 25.0492 94.8427 23.1587 94.8427 20.8438V15.5966C94.8427 13.2816 94.0711 11.3911 92.605 10.1179C91.1774 8.88326 89.1711 8.22736 86.6247 8.22736ZM86.6247 10.6966C88.5538 10.6966 90.0199 11.121 90.9845 11.9698C91.9105 12.7801 92.3735 14.0147 92.3735 15.5966V20.8438C92.3735 22.4256 91.9105 23.6603 90.9845 24.4705C90.0199 25.3193 88.5538 25.7437 86.6247 25.7437C84.6956 25.7437 83.1909 25.3193 82.2263 24.4705C81.3004 23.6603 80.8374 22.4256 80.8374 20.8438V15.5966C80.8374 14.0147 81.3004 12.7801 82.2263 11.9698C83.1909 11.121 84.6956 10.6966 86.6247 10.6966Z" fill="#F1F1F1"/>
<path d="M114.812 1.20538H112.343V9.92498C110.915 8.80609 108.986 8.22736 106.555 8.22736C104.009 8.22736 102.003 8.88326 100.575 10.1179C99.1091 11.3911 98.3374 13.2816 98.3374 15.5966V20.8438C98.3374 23.1587 99.1091 25.0492 100.575 26.3224C102.003 27.5571 104.009 28.213 106.555 28.213C108.986 28.213 110.915 27.6342 112.343 26.5154V28.213H114.812V1.20538ZM106.555 10.6966C108.485 10.6966 109.989 11.121 110.954 11.9698C111.88 12.7801 112.343 14.0147 112.343 15.5966V20.8438C112.343 22.4256 111.88 23.6603 110.954 24.4705C109.989 25.3193 108.485 25.7437 106.555 25.7437C104.626 25.7437 103.16 25.3193 102.196 24.4705C101.27 23.6603 100.807 22.4256 100.807 20.8438V15.5966C100.807 14.0147 101.27 12.7801 102.196 11.9698C103.16 11.121 104.626 10.6966 106.555 10.6966Z" fill="#F1F1F1"/>
</g>
<path d="M68.8101 26.1517V27.3953C68.8101 27.7307 69.1133 27.9846 69.4435 27.9257L70.0629 27.7279V25.0952L69.4129 25.3589C69.0567 25.4577 68.8101 25.782 68.8101 26.1517Z" fill="#F1F1F1"/>
<path d="M64.4667 26.1522V27.3947C64.4667 27.7305 64.1633 27.9846 63.8327 27.9257L63.2128 27.7279V25.0952L63.8633 25.3589C64.2199 25.4577 64.4667 25.7822 64.4667 26.1522Z" fill="#F1F1F1"/>
<path d="M13.8338 10.6966V8.22736H12.0976C9.66693 8.22736 7.73781 8.80609 6.31027 9.92497V8.22736H3.841V28.213H6.31027V15.5966C6.31027 14.0147 6.77326 12.7801 7.69923 11.9698C8.66379 11.121 10.1685 10.6966 12.0976 10.6966H13.8338Z" fill="#F2994A"/>
<path d="M24.7951 8.22736C22.2487 8.22736 20.2038 8.88325 18.7763 10.1179C17.3101 11.3911 16.5385 13.2816 16.5385 15.5966V20.8438C16.5385 23.1587 17.3101 25.0492 18.7763 26.3224C20.2038 27.5571 22.2487 28.213 24.7951 28.213H25.2581C27.11 28.213 28.7305 27.8657 30.0037 27.1713C31.3927 26.4382 32.3572 25.3579 32.936 23.9303L30.6596 23.0044C30.2738 23.8918 29.695 24.5477 28.8462 25.0106C27.9203 25.4736 26.7242 25.7437 25.2581 25.7437H24.7951C22.866 25.7437 21.3613 25.3193 20.3967 24.4705C19.4707 23.6603 19.0078 22.4256 19.0078 20.8438V19.4548H33.0131V15.5966C33.0131 13.2816 32.2415 11.3911 30.7754 10.1179C29.3478 8.88325 27.3415 8.22736 24.7951 8.22736ZM24.7951 10.6966C26.7242 10.6966 28.1903 11.121 29.1549 11.9698C30.0809 12.7801 30.5439 14.0147 30.5439 15.5966V16.9855H19.0078V15.5966C19.0078 14.0147 19.4707 12.7801 20.3967 11.9698C21.3613 11.121 22.866 10.6966 24.7951 10.6966Z" fill="#F2994A"/>
<rect x="65.5393" y="24.9669" width="2.19803" height="4.21994" rx="1.09901" fill="#F2994A"/>
</svg>
